# xmcd
#
# Track frame offsets: 
#        150
#        16622
#        35745
#        56145
#        77558
#        92599
#        105255
#        121695
#        145516
#        163774
#        180698
#        191077
#        206537
#
# Disc length: 2937 seconds
#
# Revision: 0
# Processed by: cddbd v1.5.2PL0 Copyright (c) Steve Scherf et al.
# Submitted via: ExactAudioCopy v0.99pb1
#
DISCID=9e0b770d
DTITLE=Rick Vito - Band Box Boogie
DYEAR=2004
DGENRE=Blues
TTITLE0=Last Chance To Mambo
TTITLE1=Little Sheba
TTITLE2=The Ways Of Sin
TTITLE3=Blues Town
TTITLE4=Hungry Man
TTITLE5=Band Box Boogie
TTITLE6=Where Did You Go Bettie Page
TTITLE7=Message From Mister Jordan
TTITLE8=Baby's In The Big House
TTITLE9=The Gypsy Serenade
TTITLE10=Rhythm
TTITLE11=I Can't Stop Rockin'
TTITLE12=Jack Knife Jump
EXTD=
EXTT0=
EXTT1=
EXTT2=
EXTT3=
EXTT4=
EXTT5=
EXTT6=
EXTT7=
EXTT8=
EXTT9=
EXTT10=
EXTT11=
EXTT12=
PLAYORDER=
